<?xml version="1.0" encoding="UTF-8"?>
<svg id="Layer_1" data-name="Layer 1" xmlns="http://www.w3.org/2000/svg" viewBox="0 0 1080 1080">
  <defs>
    <style>
      .cls-1 {
        fill: #fff;
      }

      .cls-1, .cls-2 {
        stroke-width: 0px;
      }

      .cls-2 {
        fill: #06c168;
      }
    </style>
  </defs>
  <rect class="cls-2" x="0" width="1080" height="1080"/>
  <g>
    <path class="cls-1" d="m479.93,533.8c-5.66-4.11-12.91-3.11-15.85,2.16l-38.59,71.65c-8.87,16.46-26.12,26.28-46.17,26.28h-50.83c-4.86,0-8.58-5.46-6.43-9.46l52.16-96.82c14.72-27.34,52.16-32.66,81.25-11.56l12.97,9.42.93.67,10.55,7.66Z"/>
    <path class="cls-1" d="m655.69,458.51l-29.01,56.61c-2.48,4.83-6.43,8.64-11.39,10.98-38.62,18.22-71.81,33.83-83.77,39.46-2.91,1.37-6.62.87-9.6-1.3l-18.42-13.37-21.13-15.32,65.6-30.91,104.6-49.29c1.81-.85,4.02,1.36,3.11,3.13Z"/>
    <path class="cls-1" d="m547.98,504.67l-65.6,30.91-2.45-1.78-10.55-7.66-.93-.67-12.97-9.42c-29.09-21.1-66.53-15.78-81.25,11.56l27.3-50.7,3.78-7.02c14.36-26.65,50.87-31.84,79.22-11.27l15.25,11.07c12.16,8.83,24.33,17.65,36.49,26.48,3.9,2.83,7.81,5.66,11.71,8.5Z"/>
    <path class="cls-1" d="m748.9,446.61c7.02,0,11.87,7.68,8.64,13.68l-35.51,65.94-5.29,9.82-38.59,71.65c-8.88,16.46-26.12,26.28-46.18,26.28h-50.83c-4.86,0-8.57-5.46-6.43-9.46l52.16-96.82,36.19-67.18c4.65-8.64,13.67-13.91,23.78-13.91h62.04Z"/>
  </g>
</svg>