<?xml version="1.0" encoding="UTF-8"?>
<svg id="Layer_1" data-name="Layer 1" xmlns="http://www.w3.org/2000/svg" viewBox="0 0 1080 1080">
  <defs>
    <style>
      .cls-1, .cls-2, .cls-3 {
        stroke-width: 0px;
      }

      .cls-2 {
        fill: #fff;
      }

      .cls-3 {
        fill: #06c168;
      }
    </style>
  </defs>
  <rect class="cls-3" y="0" width="1080" height="1080"/>
  <g>
    <path class="cls-1" d="m641.49,625.32h-123.8c.09-.05.16-.13.23-.22-3.47-.79-6.03-3.9-6.03-7.58,0-2.15.87-4.12,2.28-5.53,1.43-1.43,3.38-2.29,5.53-2.29h108.79c2.15,0,4.1-.87,5.51-2.28,1.43-1.41,2.29-3.36,2.29-5.53,0-4.3-3.5-7.8-7.8-7.8h-76.51c.07-.07.16-.14.25-.22-3.45-.81-5.99-3.9-5.99-7.58,0-2.15.87-4.1,2.28-5.51,1.43-1.43,3.38-2.29,5.53-2.29h58.81c2.17,0,4.12-.87,5.53-2.28,1.41-1.41,2.28-3.36,2.28-5.53,0-4.3-3.48-7.8-7.8-7.8h-26.8c8-7.6,15.75-15.35,23.06-23.33,36.8-40.18,43.9-89.22,19.39-113.94-26.02-26.31-77.92-23.11-126.06,7.75-47.45,30.41-78.13,79.22-73.37,118.2,3.38,27.43,8.13,54.21,12.53,81.17,1.48,9.19,3.11,18.33,4.82,27.75,1.08,5.98,5.54,10.02,10.69,11.23,1.08.27,2.18.4,3.3.4h118.31c2.15,0,4.1-.88,5.53-2.29,1.41-1.41,2.28-3.36,2.28-5.51,0-4.32-3.49-7.8-7.8-7.8h-95.61l.04-.04c-3.97-.36-7.08-3.72-7.08-7.76,0-2.15.87-4.1,2.28-5.53,1.41-1.41,3.36-2.28,5.53-2.28h157.6c2.17,0,4.12-.88,5.53-2.29,1.41-1.41,2.28-3.36,2.28-5.51,0-4.32-3.49-7.8-7.8-7.8Zm-141.1-121.07c9.03-19.38,32.03-35.07,51.41-35.07s27.74,15.69,18.69,35.07c-9.01,19.34-32.03,35.05-51.39,35.05s-27.74-15.71-18.71-35.05Z"/>
    <path class="cls-1" d="m460.43,672.13h-.9c-.83,0-1.64-.13-2.4-.4,1.08.27,2.18.4,3.3.4Z"/>
    <rect class="cls-2" x="650.43" y="609.71" width=".98" height="1.68"/>
    <rect class="cls-1" x="650.43" y="609.71" width=".98" height="1.68"/>
  </g>
</svg>